<svg viewBox="0 0 200 200" xmlns="http://www.w3.org/2000/svg">
  <!-- Chat bubble with thick outline -->
  <path d="M 100 15 C 150 15 185 50 185 100 C 185 150 150 185 100 185 C 88 185 77 183 67 179 L 25 205 L 50 155 C 30 138 18 115 18 100 C 18 50 53 15 100 15 Z" 
        fill="none" stroke="currentColor" stroke-width="10" stroke-linejoin="round" stroke-linecap="round"/>
  
  <!-- Top horizontal lines with nodes -->
  <line x1="50" y1="55" x2="145" y2="55" stroke="currentColor" stroke-width="2" stroke-linecap="round"/>
  <circle cx="65" cy="55" r="3.5" fill="currentColor"/>
  
  <!-- Second line with branch -->
  <line x1="50" y1="70" x2="145" y2="70" stroke="currentColor" stroke-width="2" stroke-linecap="round"/>
  <circle cx="65" cy="70" r="3.5" fill="currentColor"/>
  <circle cx="95" cy="70" r="3" fill="currentColor"/>
  <line x1="95" y1="70" x2="105" y2="70" stroke="currentColor" stroke-width="1.5" stroke-linecap="round"/>
  <circle cx="105" cy="70" r="2.5" fill="currentColor"/>
  
  <!-- Third line -->
  <line x1="50" y1="85" x2="145" y2="85" stroke="currentColor" stroke-width="2" stroke-linecap="round"/>
  <circle cx="65" cy="85" r="3.5" fill="currentColor"/>
  
  <!-- Fourth line with branches -->
  <line x1="50" y1="100" x2="145" y2="100" stroke="currentColor" stroke-width="2" stroke-linecap="round"/>
  <circle cx="65" cy="100" r="3.5" fill="currentColor"/>
  <circle cx="85" cy="100" r="3" fill="currentColor"/>
  <line x1="85" y1="100" x2="95" y2="100" stroke="currentColor" stroke-width="1.5" stroke-linecap="round"/>
  
  <!-- Fifth line -->
  <line x1="50" y1="115" x2="145" y2="115" stroke="currentColor" stroke-width="2" stroke-linecap="round"/>
  <circle cx="65" cy="115" r="3.5" fill="currentColor"/>
  <circle cx="95" cy="115" r="3" fill="currentColor"/>
  <line x1="95" y1="115" x2="105" y2="115" stroke="currentColor" stroke-width="1.5" stroke-linecap="round"/>
  <circle cx="105" cy="115" r="2.5" fill="currentColor"/>
  
  <!-- Sixth line -->
  <line x1="50" y1="130" x2="145" y2="130" stroke="currentColor" stroke-width="2" stroke-linecap="round"/>
  <circle cx="65" cy="130" r="3.5" fill="currentColor"/>
  <circle cx="95" cy="130" r="3" fill="currentColor"/>
  
  <!-- Right side nodes -->
  <circle cx="155" cy="70" r="3.5" fill="currentColor"/>
  <circle cx="155" cy="100" r="4" fill="currentColor"/>
  
  <!-- Diagonal lightning/AI line (main feature) -->
  <line x1="110" y1="50" x2="140" y2="120" stroke="currentColor" stroke-width="4" stroke-linecap="round"/>
  
  <!-- Search/magnifying glass symbol -->
  <g stroke="currentColor" stroke-width="2.5" fill="none" stroke-linecap="round">
    <circle cx="108" cy="73" r="7"/>
    <line x1="114" y1="79" x2="122" y2="87"/>
  </g>
</svg>
    <circle cx="145" cy="120" r="3" fill="black"/>
    
    <!-- Diagonal connector -->
    <line x1="95" y1="75" x2="130" y2="110"/>
    <circle cx="95" cy="75" r="2" fill="black"/>
  </g>
</svg>